<svg xmlns="http://www.w3.org/2000/svg" viewBox="0 0 1200 800" role="img" aria-label="Cracked glass texture">
  <defs>
    <linearGradient id="hairline-fade" x1="0%" y1="0%" x2="0%" y2="100%">
      <stop offset="0%" stop-color="#ffffff" stop-opacity="0.82" />
      <stop offset="100%" stop-color="#e8ffff" stop-opacity="0.4" />
    </linearGradient>
  </defs>
  <g stroke-linecap="round" stroke-linejoin="round" fill="none">
    <g stroke="#0a0f16" stroke-opacity="0.52" stroke-width="3.2">
      <path d="M610 404 l90 -120 86 40 118 -58 100 18 110 46" />
      <path d="M610 404 l-86 -132 -112 26 -94 -64 -132 16 -112 -72" />
      <path d="M610 404 l-118 86 -132 22 -96 88 -118 70" />
      <path d="M610 404 l140 94 126 86 92 114" />
      <path d="M610 404 l64 160 -42 138 64 122" />
      <path d="M610 404 l-48 158 -126 100 -62 118" />
      <path d="M610 404 l-12 -170 90 -118 8 -134" />
      <path d="M610 404 l-158 -38 -156 -94 -140 -18" />
    </g>
    <g stroke="#0a0f16" stroke-opacity="0.35" stroke-width="2">
      <path d="M600 398 l52 -68 48 16 70 -46 56 12 64 -30 46 24 52 -12" />
      <path d="M600 398 l-66 -92 -78 18 -74 -52 -78 12 -82 -48" />
      <path d="M600 398 l-84 60 -92 26 -72 62 -80 44" />
      <path d="M600 398 l108 78 92 70 70 86" />
      <path d="M600 398 l48 126 -36 106 44 88" />
      <path d="M600 398 l-34 126 -92 78 -40 94" />
      <path d="M600 398 l-8 -132 76 -98 4 -104" />
      <path d="M600 398 l-118 -32 -116 -68 -116 -12" />
    </g>
    <g stroke="#f4ffff" stroke-width="1.8" stroke-opacity="0.85">
      <path d="M600 400 l76 -96 62 30 94 -42 82 22 88 32" />
      <path d="M600 400 l-74 -106 -98 20 -78 -62 -106 18 -96 -52" />
      <path d="M600 400 l-102 70 -106 34 -80 78 -86 52" />
      <path d="M600 400 l126 92 104 82 86 110" />
      <path d="M600 400 l54 144 -42 124 58 112" />
      <path d="M600 400 l-42 142 -108 90 -54 102" />
      <path d="M600 400 l-6 -148 90 -104 12 -112" />
      <path d="M600 400 l-132 -48 -124 -84 -132 -16" />
    </g>
    <g stroke="url(#hairline-fade)" stroke-width="1.2">
      <path d="M600 400 l18 -38 34 12 30 -30 36 10 24 -24 28 18 22 -18" />
      <path d="M600 400 l-26 -44 -36 10 -32 -30 -40 10 -34 -28" />
      <path d="M600 400 l-44 34 -46 18 -38 32 -38 18" />
      <path d="M600 400 l56 42 46 34 32 46" />
      <path d="M600 400 l16 54 -18 46 24 42" />
      <path d="M600 400 l-12 54 -44 36 -18 46" />
      <path d="M600 400 l-2 -58 36 -40 6 -42" />
      <path d="M600 400 l-52 -18 -44 -30 -52 -8" />
      <path d="M600 400 l-30 16 -24 44 -22 16 18 22" />
      <path d="M600 400 l28 8 42 40 20 24 -12 22" />
      <path d="M600 400 l16 -18 10 -30 -16 -26" />
      <path d="M600 400 l-20 10 -16 32 10 26" />
      <path d="M600 400 l22 22 32 -6 20 16" />
      <path d="M600 400 l-18 -26 -26 6 -24 -18" />
    </g>
    <g stroke="#c4f3ff" stroke-opacity="0.5" stroke-width="1.1">
      <path d="M602 402 l18 32 -8 26 12 22 -16 28" />
      <path d="M596 398 l-20 30 6 28 -16 24 14 30" />
      <path d="M640 420 l34 14 10 30 32 18" />
      <path d="M560 380 l-30 -18 -12 -32 -28 -18" />
      <path d="M656 356 l22 -26 28 6 22 -18" />
      <path d="M540 444 l-28 32 -30 -12 -22 18" />
      <path d="M582 330 l-16 -30 8 -26 -12 -30" />
      <path d="M618 330 l18 -34 -8 -24 12 -32" />
      <path d="M700 470 l26 24 30 -4 22 22" />
      <path d="M504 334 l-30 -24 -26 6 -28 -18" />
      <path d="M720 350 l40 -32 32 12 36 -22" />
      <path d="M470 452 l-38 30 -32 -14 -36 18" />
    </g>
  </g>
</svg>
