<svg xmlns="http://www.w3.org/2000/svg" viewBox="0 0 160 160" role="img" aria-labelledby="title desc">
  <title id="title">Fallen hero emblem</title>
  <desc id="desc">A stylised crimson skull marking a player defeat.</desc>
  <defs>
    <radialGradient id="bg" cx="50%" cy="45%" r="65%">
      <stop offset="0%" stop-color="#ff6b6b"/>
      <stop offset="55%" stop-color="#d03030"/>
      <stop offset="100%" stop-color="#660d0d"/>
    </radialGradient>
    <linearGradient id="bone" x1="0%" y1="0%" x2="100%" y2="100%">
      <stop offset="0%" stop-color="#fff3f3"/>
      <stop offset="100%" stop-color="#f0caca"/>
    </linearGradient>
  </defs>
  <g transform="translate(80 80)">
    <circle r="72" fill="url(#bg)"/>
    <circle r="48" fill="#1b0808" opacity="0.18"/>
    <g fill="url(#bone)" stroke="#8a3a3a" stroke-width="2" stroke-linecap="round" stroke-linejoin="round" opacity="0.85">
      <rect x="-54" y="30" width="108" height="12" rx="6" transform="rotate(30)"/>
      <rect x="-54" y="30" width="108" height="12" rx="6" transform="rotate(-30)"/>
      <circle cx="-43" cy="66" r="8"/>
      <circle cx="43" cy="66" r="8"/>
      <circle cx="-39" cy="-30" r="8"/>
      <circle cx="39" cy="-30" r="8"/>
    </g>
    <g>
      <path d="M-34 -44c0-17.1 13.8-30.9 30.9-30.9h6.2c17.1 0 30.9 13.8 30.9 30.9v20.3c0 7.5-3.6 14.5-9.6 18.9l-6.2 4.6v9.7c0 9.1 -7.4 16.6 -16.6 16.6h-2.9c-9.1 0 -16.6-7.4 -16.6-16.6v-9.7l-6.2-4.6c-6-4.4-9.6-11.4-9.6-18.9z" fill="#fff5f5" stroke="#380d0d" stroke-width="4" stroke-linejoin="round"/>
      <ellipse cx="-12" cy="-16" rx="10" ry="12" fill="#380d0d"/>
      <ellipse cx="12" cy="-16" rx="10" ry="12" fill="#380d0d"/>
      <rect x="-12" y="2" width="24" height="18" rx="5" fill="#ffdede" stroke="#380d0d" stroke-width="3"/>
      <line x1="-6" y1="2" x2="-6" y2="18" stroke="#380d0d" stroke-width="2"/>
      <line x1="0" y1="2" x2="0" y2="18" stroke="#380d0d" stroke-width="2"/>
      <line x1="6" y1="2" x2="6" y2="18" stroke="#380d0d" stroke-width="2"/>
    </g>
  </g>
</svg>
