<?xml version="1.0" standalone="no"?>
<!DOCTYPE svg PUBLIC "-//W3C//DTD SVG 20010904//EN"
 "http://www.w3.org/TR/2001/REC-SVG-20010904/DTD/svg10.dtd">
<svg version="1.0" xmlns="http://www.w3.org/2000/svg"
 width="2000.000000pt" height="2000.000000pt" viewBox="0 0 2000.000000 2000.000000"
 preserveAspectRatio="xMidYMid meet">
<metadata>
Created by potrace 1.16, written by Peter Selinger 2001-2019
</metadata>
<g transform="translate(0.000000,2000.000000) scale(0.100000,-0.100000)"
fill="#f9fafb" stroke="none">
<path d="M9730 16204 c-25 -2 -106 -8 -180 -14 -493 -40 -937 -135 -1455 -312
-455 -155 -915 -384 -1355 -676 -364 -242 -629 -460 -956 -786 -352 -353 -631
-710 -896 -1151 -123 -204 -198 -349 -198 -385 0 -30 5 -33 98 -77 53 -25 146
-65 206 -90 60 -25 116 -48 125 -53 9 -4 81 -36 161 -70 80 -35 176 -78 215
-98 38 -19 119 -52 180 -74 60 -22 128 -46 150 -55 22 -8 62 -20 88 -26 57
-13 57 -13 134 118 278 478 695 954 1146 1309 334 262 747 507 1092 649 305
125 504 188 855 271 101 24 399 64 569 77 209 15 745 7 911 -15 228 -30 520
-88 695 -137 258 -73 569 -197 830 -330 588 -298 1092 -697 1499 -1184 115
-138 164 -206 343 -473 61 -92 123 -184 137 -204 31 -45 47 -47 136 -14 143
51 180 75 282 180 60 61 94 104 89 109 -6 6 -44 -12 -98 -45 -120 -75 -149
-89 -167 -82 -31 12 -16 41 37 74 202 126 348 210 365 210 18 0 42 -25 42 -44
0 -3 -41 -53 -90 -112 -62 -74 -88 -110 -80 -118 7 -7 19 -3 38 11 15 11 48
30 72 43 25 12 53 29 63 38 10 9 38 16 65 17 26 1 63 9 82 19 19 9 89 39 155
66 66 26 159 67 208 89 79 37 87 43 87 69 0 73 -296 555 -537 874 -971 1289
-2363 2121 -3928 2347 -277 40 -443 52 -810 55 -198 2 -380 2 -405 0z m850
-129 c693 -68 1269 -215 1855 -475 155 -68 361 -170 443 -219 29 -17 54 -31
56 -31 2 0 41 -22 87 -48 678 -391 1311 -964 1807 -1633 172 -233 437 -661
430 -696 -4 -19 -128 -84 -167 -86 -21 -2 -38 21 -135 183 -244 407 -521 767
-851 1109 -106 110 -333 315 -500 452 -145 120 -453 337 -571 403 -16 9 -42
25 -59 35 -295 183 -744 392 -1073 501 -651 214 -1177 300 -1842 300 -357 0
-583 -18 -935 -76 -275 -45 -382 -70 -665 -155 -875 -263 -1608 -687 -2317
-1341 -380 -349 -778 -860 -1058 -1356 -32 -57 -65 -106 -72 -109 -18 -7 -183
73 -183 88 0 33 189 350 338 569 224 328 399 539 701 841 304 303 526 492 822
698 509 352 1085 635 1645 806 596 182 1195 269 1799 260 160 -3 360 -11 445
-20z m-795 -491 c21 -9 51 -68 91 -184 22 -62 39 -96 50 -98 14 -3 15 2 10 35
-3 21 -8 84 -12 139 -7 99 -6 102 16 109 13 4 27 2 34 -4 14 -15 24 -156 25
-358 1 -153 1 -153 -30 -153 -27 0 -33 6 -55 56 -13 30 -39 100 -57 155 -47
145 -58 133 -50 -56 6 -141 5 -155 -11 -161 -40 -16 -46 10 -54 261 -6 192 -4
241 6 252 15 15 15 15 37 7z m433 -3 c8 -5 28 -82 48 -187 19 -99 41 -208 48
-244 10 -45 11 -69 4 -77 -26 -32 -63 -3 -73 56 -7 44 -12 47 -70 46 -38 0
-40 -2 -52 -45 -14 -49 -36 -72 -60 -63 -21 8 -15 46 48 302 50 203 53 213 89
220 3 0 11 -3 18 -8z m360 -25 c9 -8 11 -22 7 -36 -5 -16 -14 -21 -38 -20 -62
4 -55 30 -77 -260 -14 -178 -15 -180 -46 -180 -14 0 -27 7 -31 16 -3 9 1 107
10 218 15 187 15 202 0 214 -9 6 -27 12 -40 12 -26 0 -39 21 -29 47 6 14 20
15 118 10 75 -5 117 -11 126 -21z m-1058 -18 c9 -22 34 -238 47 -404 5 -70 4
-82 -11 -87 -42 -16 -59 8 -137 188 -49 112 -76 147 -66 84 32 -211 39 -269
34 -283 -7 -17 -42 -22 -52 -6 -6 10 -55 426 -55 471 0 28 27 43 57 32 17 -7
81 -138 108 -221 10 -29 22 -55 27 -58 23 -14 25 17 7 106 -19 97 -24 181 -12
193 14 15 44 6 53 -15z m1187 6 c3 -8 -7 -103 -22 -209 -26 -183 -26 -196 -11
-220 21 -32 60 -33 80 -2 9 13 26 104 42 217 24 183 32 209 60 210 34 0 35
-26 5 -234 -16 -113 -35 -215 -41 -226 -13 -23 -82 -59 -115 -60 -11 0 -37 11
-56 24 -59 40 -63 75 -33 301 14 104 27 196 29 203 6 17 54 15 62 -4z m386
-45 c21 -6 52 -23 70 -39 28 -25 32 -35 32 -77 0 -66 -29 -128 -72 -153 -23
-14 -33 -26 -29 -35 11 -29 36 -207 31 -216 -9 -13 -41 -11 -54 4 -11 14 -38
137 -43 197 -2 27 -7 35 -23 35 -16 0 -21 -11 -31 -70 -20 -120 -28 -140 -53
-143 -13 -2 -27 0 -32 5 -8 8 61 458 76 501 5 14 48 11 128 -9z m-1886 -245
c86 -210 92 -230 76 -241 -29 -22 -42 -14 -72 45 -23 46 -28 48 -78 30 -29
-11 -33 -16 -33 -49 0 -44 -29 -85 -53 -76 -15 6 -17 27 -17 170 0 90 3 206 7
256 5 82 9 94 27 101 12 4 27 4 35 0 8 -4 57 -111 108 -236z m-326 169 c19
-49 97 -366 104 -420 6 -44 4 -54 -10 -59 -9 -4 -23 0 -32 9 -16 16 -47 134
-58 222 -7 52 -19 75 -32 61 -3 -3 -5 -70 -4 -149 2 -117 -1 -146 -13 -156
-12 -10 -19 -6 -41 29 -15 24 -46 84 -70 135 -39 86 -59 114 -71 102 -3 -2 13
-65 36 -138 22 -74 40 -142 40 -151 0 -22 -38 -44 -52 -30 -6 6 -23 62 -38
124 -15 62 -42 166 -59 230 -17 65 -28 124 -25 132 7 17 62 32 74 20 14 -15
110 -193 127 -235 28 -70 36 -42 37 121 1 154 1 154 26 167 37 19 49 16 61
-14z m2479 16 c113 -25 120 -28 120 -55 0 -34 -22 -39 -87 -22 -62 18 -59 21
-83 -81 -14 -58 -7 -71 36 -71 30 0 57 -23 52 -46 -3 -17 -11 -19 -64 -16 -61
3 -61 3 -72 -67 -15 -91 -15 -91 8 -91 40 0 90 -28 90 -50 0 -31 -19 -33 -106
-13 -68 16 -79 22 -82 41 -3 17 80 393 104 470 4 14 24 15 84 1z m-2876 -141
c42 -113 106 -340 106 -375 -1 -73 -52 -123 -127 -123 -75 0 -95 27 -158 221
-30 93 -58 187 -61 208 -5 34 -3 40 15 46 11 3 25 4 30 0 6 -3 36 -84 67 -181
31 -96 66 -186 76 -199 38 -49 105 -20 94 39 -4 17 -31 109 -62 203 -31 95
-54 179 -50 188 3 8 16 15 30 15 20 0 27 -8 40 -42z m3333 -4 c10 -28 -32
-492 -47 -507 -4 -5 -17 -4 -29 2 -17 10 -21 21 -21 66 0 57 1 56 -66 70 -29
5 -34 2 -55 -32 -13 -21 -27 -41 -33 -45 -14 -10 -46 10 -46 29 0 14 117 233
201 375 28 48 39 58 62 58 16 0 30 -7 34 -16z m232 -71 c24 -16 24 -16 17
-175 -5 -132 -4 -158 8 -158 9 0 19 20 26 51 7 29 27 88 45 133 25 60 38 82
53 84 49 8 43 -25 -48 -251 -48 -121 -93 -224 -99 -230 -8 -8 -18 -7 -37 4
-27 14 -27 14 -22 176 6 194 -4 208 -50 75 -50 -143 -69 -182 -90 -182 -10 0
-23 5 -29 11 -12 12 -5 32 101 280 36 86 66 161 66 166 0 10 21 33 30 33 3 0
16 -7 29 -17z m-3884 -3 c10 -16 91 -239 131 -360 33 -99 34 -105 17 -118 -10
-7 -24 -11 -32 -10 -13 3 -90 176 -91 206 0 16 -6 15 -58 -5 -51 -19 -51 -13
-1 -151 33 -90 33 -94 15 -107 -24 -18 -51 -5 -59 27 -3 13 -24 70 -46 128
-122 309 -125 320 -74 328 17 3 26 -11 53 -80 18 -46 36 -86 40 -91 3 -4 28 2
54 14 37 16 46 24 40 37 -4 9 -19 49 -33 88 -21 61 -23 74 -12 88 15 18 47 21
56 6z m4254 -159 c91 -47 103 -109 45 -242 -78 -183 -141 -248 -226 -235 -43
7 -119 42 -130 59 -4 6 13 50 37 97 24 47 71 143 105 215 33 71 66 132 72 136
12 8 37 0 97 -30z m-4569 -103 c41 -57 90 -123 110 -148 54 -67 110 -149 110
-160 0 -14 -37 -31 -54 -24 -9 3 -25 21 -37 40 -11 19 -23 34 -27 34 -3 0 -25
-9 -49 -21 -37 -18 -43 -24 -36 -43 13 -39 9 -88 -9 -100 -12 -7 -21 -7 -28 0
-14 14 -46 130 -81 299 -17 77 -32 152 -36 167 -8 40 2 58 35 58 25 0 38 -14
102 -102z m-229 10 c10 -19 8 -25 -17 -45 -16 -13 -32 -23 -36 -23 -11 0 -10
-38 1 -45 5 -3 51 -85 101 -182 92 -177 92 -177 69 -196 -12 -10 -27 -16 -33
-14 -10 3 -90 148 -172 315 -25 50 -42 72 -55 72 -10 0 -21 -4 -24 -10 -3 -5
-17 -10 -30 -10 -28 0 -46 39 -24 53 108 64 186 107 196 107 7 0 18 -10 24
-22z m5159 -93 c10 -12 2 -32 -43 -112 -104 -186 -195 -328 -211 -331 -17 -4
-46 14 -46 27 0 6 50 93 224 389 27 44 54 54 76 27z m-5422 -52 c14 -26 4 -41
-38 -63 -21 -11 -42 -25 -45 -31 -9 -13 46 -128 60 -128 6 -1 28 8 49 18 40
21 61 19 70 -5 5 -14 -2 -23 -58 -67 -29 -23 -29 -23 14 -90 23 -37 44 -67 46
-67 2 0 27 14 55 32 55 34 81 31 87 -9 2 -16 -14 -30 -76 -67 -43 -25 -86 -46
-95 -46 -10 0 -23 15 -31 35 -8 19 -41 81 -74 137 -111 194 -143 258 -140 275
3 16 131 93 155 93 7 0 16 -8 21 -17z m5537 -23 c17 -19 16 -25 -15 -160 -17
-78 -29 -144 -26 -147 12 -12 32 7 45 43 7 21 29 63 49 93 19 31 41 66 49 79
11 18 17 20 34 12 11 -6 22 -17 25 -24 3 -7 -36 -78 -87 -157 -51 -79 -110
-172 -132 -206 -42 -67 -54 -74 -80 -45 -12 13 -13 26 -7 57 21 109 42 199 51
222 9 25 5 43 -11 43 -5 0 -32 -44 -60 -98 -28 -54 -62 -111 -74 -127 -19 -24
-25 -26 -44 -16 -12 6 -22 17 -22 23 0 10 205 357 239 405 20 28 43 29 66 3z
m-5762 -117 c8 -10 44 -67 80 -128 88 -151 127 -215 150 -249 21 -31 15 -58
-16 -64 -20 -4 -73 67 -124 166 -21 39 -41 72 -45 72 -15 0 -20 -23 -10 -43
41 -86 86 -231 78 -253 -11 -29 -37 -11 -128 86 -86 92 -118 117 -118 89 0 -6
20 -36 43 -67 24 -31 61 -83 82 -115 38 -58 38 -58 19 -78 -28 -27 -43 -18
-84 48 -19 31 -77 122 -127 202 -51 79 -93 148 -93 152 0 13 42 49 57 49 8 0
64 -49 125 -110 61 -60 115 -110 120 -110 12 0 12 1 -46 163 -25 70 -46 138
-46 150 0 14 11 29 28 39 34 22 36 22 55 1z m6046 -67 c111 -75 125 -89 117
-119 -8 -32 -24 -34 -59 -7 -14 11 -31 20 -39 20 -7 -1 -56 -65 -108 -143
-123 -184 -146 -210 -171 -197 -10 6 -19 16 -19 22 0 16 153 249 204 312 40
48 40 48 8 75 -39 31 -44 81 -9 81 5 0 40 -20 76 -44z m239 -180 c82 -63 98
-82 82 -101 -19 -23 -38 -19 -93 21 -27 20 -52 32 -56 27 -3 -5 -23 -30 -43
-55 -21 -25 -38 -49 -38 -53 0 -4 18 -23 40 -42 33 -29 38 -38 30 -54 -13 -24
-38 -24 -70 1 -14 11 -32 20 -40 20 -17 0 -90 -92 -90 -112 1 -7 19 -26 40
-43 55 -42 66 -85 21 -85 -26 0 -151 99 -151 120 0 9 16 37 35 61 70 89 156
206 201 272 25 37 52 67 60 67 9 0 41 -20 72 -44z m-6730 -68 c21 -21 13 -40
-28 -75 -22 -19 -40 -39 -40 -44 0 -13 80 -109 91 -109 4 0 20 12 34 26 15 15
34 24 48 22 36 -5 32 -37 -9 -79 -38 -39 -38 -39 -3 -76 47 -51 99 -120 99
-131 0 -5 -9 -17 -21 -28 -21 -19 -21 -18 -52 17 -18 19 -68 82 -112 138 -44
57 -101 130 -127 163 -56 70 -55 71 29 140 62 51 72 55 91 36z m6918 -87 c69
-49 94 -87 94 -139 0 -38 -6 -55 -31 -85 -38 -46 -81 -69 -121 -65 -32 3 -32
3 -65 -97 -36 -106 -52 -131 -77 -122 -36 14 -35 39 5 146 21 57 36 107 33
112 -12 20 -32 6 -87 -61 -63 -77 -80 -89 -102 -70 -25 21 -18 36 53 119 37
44 101 121 142 172 87 106 99 119 109 119 4 0 26 -13 47 -29z m-7093 -139 c40
-27 193 -207 217 -256 31 -66 27 -102 -19 -147 -33 -33 -45 -39 -83 -39 -56 0
-90 28 -204 163 -106 127 -121 175 -76 245 33 51 114 67 165 34z m7302 -52
c18 -20 17 -22 -16 -73 -43 -65 -130 -192 -147 -217 -28 -39 9 -28 62 18 60
52 200 152 214 152 5 0 17 -10 28 -21 19 -21 19 -22 -6 -38 -13 -9 -91 -65
-173 -126 -188 -139 -211 -153 -234 -139 -10 6 -19 19 -21 28 -4 17 137 270
210 379 42 62 55 68 83 37z m-7651 -222 c9 -14 3 -25 -33 -62 -24 -24 -42 -48
-40 -53 2 -4 27 -30 56 -57 49 -45 73 -52 73 -21 0 19 39 45 56 38 8 -3 19
-14 24 -24 8 -14 4 -26 -22 -54 -31 -36 -31 -36 23 -91 55 -55 55 -55 105 -10
27 25 52 46 56 46 9 0 38 -29 38 -38 0 -15 -122 -142 -136 -142 -9 0 -75 58
-147 128 -73 71 -151 146 -174 167 -24 20 -43 44 -43 52 0 8 25 44 57 79 58
67 84 77 107 42z m7924 -49 c35 -39 61 -76 59 -82 -2 -6 -11 -15 -21 -21 -15
-9 -25 -3 -61 37 -24 26 -47 47 -51 47 -11 0 -104 -92 -104 -103 0 -5 14 -25
31 -45 31 -35 31 -35 9 -56 -21 -21 -21 -21 -56 17 -35 38 -35 38 -90 -3 -31
-23 -58 -48 -61 -55 -2 -8 12 -35 32 -59 39 -48 43 -79 9 -84 -24 -3 -137 110
-132 132 4 19 344 346 360 346 8 0 42 -32 76 -71z m140 -161 c7 -7 12 -18 12
-24 0 -19 -364 -314 -387 -314 -7 0 -17 9 -23 20 -13 24 -16 21 159 165 74 61
148 122 165 137 34 30 55 35 74 16z m-8227 -14 c22 -11 29 -21 27 -37 -3 -19
-9 -22 -46 -20 -35 1 -45 -2 -58 -23 -16 -23 -15 -26 9 -63 26 -40 157 -162
208 -194 52 -34 102 7 79 64 -15 35 -7 59 19 59 22 0 49 -37 58 -80 4 -23 -1
-40 -21 -69 -49 -70 -107 -79 -180 -27 -80 57 -232 203 -246 235 -18 45 -5 98
35 138 37 37 69 42 116 17z m8298 -76 c5 -7 27 -33 49 -58 72 -83 142 -183
142 -202 0 -36 -32 -34 -66 6 -33 38 -33 38 -66 8 -47 -44 -185 -152 -257
-203 -50 -35 -65 -41 -79 -33 -38 24 -23 42 147 175 94 74 171 137 171 142 0
5 -11 23 -25 41 -14 18 -25 38 -25 44 0 34 -62 -10 -263 -190 -48 -43 -91 -78
-96 -78 -15 0 -41 37 -36 51 10 23 366 309 386 309 4 0 13 -6 18 -12z m-8455
-160 c197 -169 291 -261 291 -287 0 -42 -30 -37 -93 16 -87 73 -285 252 -305
275 -16 20 -16 22 -1 39 10 11 21 19 26 19 5 0 42 -28 82 -62z m-114 -52 c9
-12 3 -26 -31 -71 -23 -30 -40 -57 -38 -59 2 -2 30 -25 62 -51 59 -47 59 -47
88 -13 15 18 28 36 29 41 0 13 37 8 49 -7 16 -19 1 -49 -34 -72 -14 -9 -25
-21 -25 -28 0 -6 30 -34 68 -63 37 -28 78 -63 91 -77 25 -26 25 -26 4 -47 -21
-21 -21 -21 -189 111 -215 169 -236 188 -224 209 4 9 29 44 54 79 47 63 72 76
96 48z m8820 -125 c5 -11 10 -24 10 -30 0 -5 -55 -47 -122 -92 -68 -45 -158
-107 -202 -137 -78 -54 -79 -54 -98 -34 -11 11 -17 25 -14 31 12 19 390 281
406 281 5 0 14 -9 20 -19z m-8977 -102 c8 -13 2 -28 -26 -67 -20 -27 -37 -56
-37 -64 0 -13 101 -88 118 -88 4 0 20 19 37 41 20 27 36 39 50 37 31 -5 31
-49 0 -78 -14 -13 -25 -29 -25 -36 0 -6 39 -37 86 -69 47 -31 88 -63 91 -72 7
-19 -31 -58 -49 -49 -46 22 -394 276 -396 289 -2 9 22 52 54 97 56 81 76 93
97 59z m9071 -50 c54 -43 69 -104 40 -165 -17 -36 -118 -107 -252 -176 -96
-50 -129 -50 -175 1 -42 46 -51 71 -43 116 11 55 128 149 271 217 72 34 122
36 159 7z m-9149 -243 c98 -47 235 -144 262 -185 56 -83 2 -181 -99 -181 -64
0 -313 145 -348 202 -33 54 -23 118 28 171 35 36 71 35 157 -7z"/>
<path d="M10176 15418 c-3 -13 -10 -56 -17 -97 -12 -81 -7 -94 41 -89 20 3 24
8 22 28 -1 14 -5 50 -8 80 -7 76 -13 100 -24 100 -5 0 -12 -10 -14 -22z"/>
<path d="M11016 15400 c-19 -130 -22 -116 21 -124 52 -8 83 25 83 89 0 50 -24
75 -71 75 -24 0 -28 -5 -33 -40z"/>
<path d="M9096 15342 c-3 -5 -5 -50 -4 -100 1 -92 1 -92 39 -92 44 0 49 12 24
60 -8 16 -20 52 -26 79 -10 50 -23 69 -33 53z"/>
<path d="M11714 15135 c-25 -62 -43 -100 -56 -118 -16 -21 2 -37 43 -37 23 0
26 4 36 73 7 39 15 82 19 95 11 38 -25 27 -42 -13z"/>
<path d="M12333 14968 c-9 -24 -43 -96 -75 -161 -32 -65 -58 -124 -58 -132 0
-20 35 -37 64 -29 13 3 33 16 45 28 28 30 98 182 113 246 11 50 11 53 -11 71
-38 31 -59 24 -78 -23z"/>
<path d="M7793 14898 c26 -105 46 -163 59 -166 8 -2 25 6 38 16 24 19 24 19
-1 49 -13 17 -36 51 -51 77 -29 49 -54 62 -45 24z"/>
<path d="M13515 14163 c-49 -55 -49 -55 -17 -84 18 -16 39 -29 48 -29 17 0 71
56 80 82 6 21 -32 88 -49 87 -7 0 -34 -25 -62 -56z"/>
<path d="M6421 14084 c-39 -28 -28 -73 37 -156 68 -84 155 -168 175 -168 21 0
47 33 47 60 0 41 -154 236 -210 265 -23 12 -30 12 -49 -1z"/>
<path d="M14544 13027 c-85 -32 -240 -142 -264 -187 -12 -22 22 -70 50 -70 29
0 147 65 227 126 80 59 89 83 53 122 -23 25 -24 25 -66 9z"/>
<path d="M5370 12781 c-23 -45 -13 -68 53 -114 87 -62 209 -127 238 -127 50 0
63 39 28 84 -39 50 -210 153 -281 170 -21 5 -30 2 -38 -13z"/>
<path d="M19330 14512 c-63 -32 -200 -95 -305 -142 -104 -46 -221 -98 -260
-116 -141 -65 -574 -261 -1205 -544 -225 -101 -490 -222 -605 -275 -44 -21
-192 -88 -330 -150 -137 -62 -331 -150 -430 -195 -669 -305 -850 -387 -925
-420 -47 -21 -170 -76 -275 -123 -463 -207 -858 -382 -985 -437 -75 -32 -217
-94 -316 -138 -98 -44 -262 -116 -364 -160 -102 -44 -225 -98 -275 -120 -435
-193 -645 -284 -835 -362 -159 -65 -189 -85 -241 -162 -23 -35 -62 -85 -88
-111 -84 -89 -80 -86 -601 -317 -239 -106 -257 -112 -273 -96 -7 7 -28 65 -46
127 -18 63 -57 186 -86 274 -63 188 -140 432 -188 600 -20 66 -42 140 -51 165
-32 90 -31 91 232 329 104 95 120 123 88 150 -10 9 -197 11 -728 9 -818 -3
-698 17 -898 -151 -58 -48 -119 -94 -135 -101 -32 -14 -216 -36 -294 -36 -86
0 -179 -83 -218 -193 -14 -41 -18 -83 -18 -197 0 -169 6 -197 40 -206 28 -7
55 9 154 88 52 41 57 43 120 43 72 -1 322 -70 381 -107 31 -18 32 -20 25 -71
-16 -113 -57 -224 -152 -407 -53 -102 -114 -219 -135 -260 -22 -41 -44 -79
-51 -83 -7 -5 -38 3 -77 21 -36 16 -130 58 -210 92 -80 34 -167 72 -195 85
-27 13 -91 41 -142 64 -218 96 -266 132 -362 278 -58 86 -68 93 -201 148 -36
14 -78 32 -95 40 -16 7 -86 36 -155 63 -117 47 -173 71 -295 127 -27 12 -194
84 -370 160 -358 153 -344 148 -475 205 -52 23 -147 64 -210 91 -276 120 -405
176 -550 242 -85 38 -207 91 -270 119 -63 27 -137 60 -165 73 -27 13 -106 48
-175 78 -69 31 -161 72 -205 92 -128 59 -455 205 -460 205 -2 0 -41 17 -87 39
-196 92 -253 118 -550 250 -172 76 -349 156 -393 176 -144 67 -287 132 -515
235 -124 56 -254 115 -290 132 -36 17 -103 47 -150 68 -47 21 -121 54 -165 75
-44 20 -134 61 -200 90 -66 29 -199 89 -295 133 -96 44 -303 137 -460 207
-387 172 -600 270 -694 317 -84 42 -119 44 -131 8 -4 -12 1 -31 13 -48 10 -15
47 -76 82 -137 35 -60 106 -184 158 -275 52 -91 155 -268 227 -395 73 -126
156 -270 185 -320 28 -49 83 -145 122 -213 58 -102 76 -125 108 -142 41 -21
417 -175 540 -221 41 -15 120 -47 175 -70 97 -40 696 -281 1325 -534 407 -163
973 -392 1250 -505 124 -51 252 -102 285 -115 33 -12 157 -62 275 -110 476
-194 509 -206 530 -195 32 17 40 44 40 129 0 44 5 83 10 86 6 4 221 -89 478
-206 257 -116 501 -226 542 -244 41 -18 174 -77 295 -132 121 -56 252 -114
290 -131 67 -29 257 -115 395 -180 36 -16 88 -40 115 -52 28 -12 122 -55 210
-95 88 -39 250 -112 360 -161 110 -49 220 -105 246 -124 52 -39 563 -493 794
-705 259 -238 409 -371 432 -383 55 -30 55 -30 338 228 147 135 171 156 431
389 77 69 144 129 149 135 19 21 307 281 358 323 34 28 119 74 247 132 313
144 457 210 765 353 160 74 376 175 480 223 394 182 742 343 805 373 36 16
103 46 150 67 47 20 171 77 277 127 106 49 197 87 203 83 6 -3 10 -44 10 -94
0 -74 3 -91 20 -106 31 -28 75 -16 370 105 151 62 313 127 360 145 47 19 137
54 200 80 63 26 331 134 595 240 264 106 642 259 840 340 198 81 500 203 670
272 171 69 414 168 540 220 127 52 275 112 330 133 124 48 371 149 445 182 67
31 73 37 147 168 33 58 150 260 259 450 110 190 245 424 299 520 54 96 125
219 157 272 32 54 58 104 58 111 0 16 -32 47 -46 46 -5 0 -61 -26 -124 -57z
m-98 -224 c-73 -134 -257 -456 -272 -478 -9 -14 -45 -77 -80 -140 -60 -109
-159 -279 -274 -470 -51 -84 -51 -84 -376 -218 -179 -73 -370 -150 -425 -171
-55 -21 -152 -60 -215 -86 -63 -26 -230 -93 -370 -150 -140 -57 -311 -126
-380 -155 -69 -29 -168 -69 -220 -90 -52 -20 -252 -101 -445 -179 -376 -153
-490 -199 -915 -369 -151 -61 -419 -169 -595 -241 -175 -72 -325 -131 -331
-131 -8 0 -13 30 -16 95 -5 157 -28 162 -268 50 -91 -42 -185 -86 -210 -97
-25 -12 -103 -47 -173 -79 -70 -33 -129 -59 -131 -59 -2 0 -55 -24 -117 -54
-236 -112 -448 -211 -574 -266 -71 -32 -175 -79 -230 -105 -55 -26 -179 -83
-275 -127 -96 -44 -227 -105 -290 -135 -63 -30 -162 -77 -220 -103 -58 -26
-154 -71 -215 -100 -60 -29 -153 -71 -205 -95 -52 -23 -114 -53 -137 -66 -37
-21 -286 -240 -613 -539 -64 -58 -176 -159 -250 -225 -73 -66 -185 -168 -249
-227 -64 -59 -121 -108 -127 -108 -6 0 -78 62 -160 138 -567 521 -990 895
-1070 947 -27 18 -79 45 -115 60 -35 15 -95 42 -134 60 -38 18 -137 63 -220
100 -236 106 -473 214 -553 251 -40 19 -75 34 -77 34 -3 0 -33 13 -67 29 -117
55 -439 201 -443 201 -2 0 -46 20 -97 44 -51 24 -169 78 -263 119 -93 42 -207
94 -253 116 -45 23 -84 41 -86 41 -2 0 -111 48 -242 106 -392 175 -458 203
-475 204 -8 0 -25 -10 -37 -23 -18 -19 -22 -37 -24 -112 -3 -83 -5 -90 -23
-88 -17 1 -108 37 -505 200 -8 4 -96 39 -195 79 -99 39 -254 102 -345 139
-393 160 -690 280 -755 305 -38 15 -126 50 -195 77 -261 106 -814 329 -1025
415 -121 49 -254 102 -295 118 -41 16 -131 52 -200 80 -69 28 -204 82 -300
120 -220 86 -290 114 -365 150 -60 28 -60 28 -136 161 -42 74 -124 217 -184
319 -59 102 -138 239 -175 305 -37 66 -111 194 -164 285 -53 90 -96 168 -96
172 0 17 36 5 192 -68 158 -74 240 -112 303 -139 17 -7 66 -30 110 -50 44 -20
159 -72 255 -115 96 -43 202 -90 235 -105 33 -16 152 -70 265 -120 343 -155
615 -279 815 -370 105 -48 264 -121 355 -162 91 -41 193 -88 228 -104 35 -16
65 -29 67 -29 2 0 43 -18 92 -41 127 -59 362 -164 478 -214 55 -24 145 -64
200 -90 106 -50 547 -247 1035 -462 162 -72 373 -165 469 -208 96 -42 197 -87
225 -100 28 -12 83 -36 121 -53 39 -16 239 -103 445 -192 426 -184 1011 -434
1176 -504 111 -47 111 -47 167 -124 114 -161 167 -198 477 -335 430 -191 568
-250 601 -254 31 -5 39 -1 56 23 43 60 309 577 325 629 34 115 50 189 55 251
5 69 5 71 -27 108 -41 46 -63 57 -197 101 -149 49 -223 65 -303 65 -61 0 -73
-3 -121 -35 -29 -20 -58 -34 -66 -31 -16 7 -18 113 -2 171 13 49 72 123 102
130 12 2 85 10 161 16 181 14 218 28 331 127 184 159 90 141 760 142 323 1
590 -1 593 -4 3 -4 -47 -59 -111 -123 -86 -87 -117 -124 -117 -142 0 -26 89
-347 140 -506 91 -285 273 -844 281 -865 17 -45 43 -54 102 -34 70 23 640 275
750 331 107 55 179 119 263 233 70 96 55 86 304 189 139 57 710 303 815 351
147 67 195 89 360 160 99 43 304 133 455 200 151 67 336 148 410 180 74 31
191 83 260 115 69 31 197 89 285 127 88 38 228 100 310 138 83 37 197 89 255
115 106 48 413 187 505 230 28 13 95 43 150 68 229 103 532 241 720 327 110
50 405 184 655 297 441 199 571 258 920 416 91 41 233 105 315 142 191 85 404
185 430 202 11 7 30 13 43 13 24 0 24 0 -6 -52z"/>
<path d="M9560 12067 c-100 -48 -98 -60 38 -219 67 -77 108 -108 145 -108 5 0
55 44 111 98 55 54 118 108 138 120 60 37 54 94 -11 112 -51 14 -390 11 -421
-3z m260 -105 c0 -4 -18 -25 -39 -46 -30 -29 -44 -36 -60 -31 -19 6 -71 63
-71 78 0 4 38 7 85 7 47 0 85 -4 85 -8z"/>
<path d="M18370 12736 c-14 -7 -142 -59 -285 -116 -362 -143 -1253 -499 -1860
-745 -280 -113 -837 -336 -1238 -496 -400 -160 -738 -300 -752 -311 -25 -19
-25 -19 -25 -362 0 -343 0 -343 23 -364 13 -12 32 -22 43 -22 11 0 134 39 274
86 140 47 305 102 365 121 61 19 297 97 525 173 228 76 465 154 525 173 361
117 1580 529 1613 546 79 40 118 95 577 798 279 429 305 471 305 491 0 40 -42
53 -90 28z m-167 -227 c-18 -29 -144 -224 -446 -687 -82 -125 -165 -244 -185
-265 -33 -34 -59 -45 -277 -117 -132 -44 -476 -159 -765 -255 -289 -97 -577
-192 -640 -212 -63 -20 -209 -68 -325 -108 -415 -142 -1226 -407 -1231 -402
-9 9 -6 519 3 528 4 4 62 29 128 54 138 54 1035 412 1425 570 146 59 416 168
600 242 184 74 394 159 465 188 72 30 364 147 650 260 286 114 531 213 545
221 14 7 36 13 48 14 24 0 24 0 5 -31z"/>
<path d="M1556 12719 c-19 -27 -20 -25 119 -239 59 -91 128 -198 154 -239 196
-310 503 -761 539 -792 47 -40 118 -65 967 -343 248 -81 486 -160 530 -176 44
-15 213 -72 375 -126 162 -54 367 -122 455 -152 88 -29 234 -77 325 -107 91
-29 185 -61 210 -70 100 -38 507 -165 528 -165 12 0 31 9 42 20 19 19 20 33
20 360 0 341 0 341 -24 363 -25 23 -202 96 -1051 435 -275 110 -831 333 -1235
494 -938 376 -1258 503 -1445 573 -82 31 -170 65 -195 75 -92 38 -282 110
-290 110 -5 0 -16 -10 -24 -21z m454 -264 c611 -243 779 -309 814 -321 21 -8
98 -38 170 -68 72 -30 309 -125 526 -212 217 -86 514 -205 660 -264 146 -59
425 -171 620 -249 535 -212 873 -349 893 -361 15 -9 17 -33 17 -270 0 -256 0
-260 -21 -260 -11 0 -532 171 -1157 379 -625 209 -1337 445 -1582 525 -245 80
-463 156 -485 169 -32 18 -66 62 -170 218 -71 107 -155 234 -185 282 -30 48
-115 178 -187 289 -131 198 -151 237 -115 223 9 -3 100 -39 202 -80z"/>
<path d="M2602 11168 c-7 -7 -12 -20 -12 -31 0 -15 236 -351 455 -649 26 -35
95 -130 153 -213 152 -213 152 -213 186 -229 34 -15 117 -33 596 -126 173 -34
641 -126 1040 -206 399 -79 735 -144 746 -144 44 0 49 22 53 222 4 234 -3 312
-32 338 -11 11 -144 60 -296 111 -152 49 -418 137 -591 194 -173 57 -533 175
-800 263 -1145 377 -1466 482 -1476 482 -5 0 -15 -5 -22 -12z m759 -348 c283
-94 606 -200 719 -236 113 -37 261 -86 330 -109 69 -24 226 -76 350 -115 124
-40 385 -125 580 -190 355 -117 355 -117 355 -296 0 -153 -2 -179 -15 -178 -8
1 -94 18 -190 39 -96 20 -296 60 -445 90 -148 29 -360 71 -470 93 -217 44
-601 119 -923 181 -128 24 -209 45 -221 55 -10 9 -51 64 -92 122 -86 121 -293
409 -412 571 -72 99 -98 143 -85 143 2 0 236 -77 519 -170z"/>
<path d="M17250 11146 c-167 -59 -2445 -811 -2715 -896 -223 -71 -312 -103
-316 -113 0 -1 -3 -119 -6 -263 -5 -294 -5 -294 67 -294 21 0 127 18 237 41
109 22 342 69 518 105 176 35 383 77 460 93 77 16 250 50 385 76 436 83 503
96 625 122 66 14 131 34 144 45 24 18 54 59 450 618 123 173 244 341 268 373
43 58 53 93 31 115 -18 18 -44 14 -148 -22z m-80 -162 c0 -3 -32 -51 -72 -107
-168 -238 -473 -665 -499 -698 -31 -40 -27 -38 -284 -85 -167 -30 -721 -139
-1060 -208 -121 -25 -314 -64 -430 -87 -115 -23 -271 -55 -345 -70 -74 -15
-138 -25 -142 -21 -10 10 -12 342 -2 352 5 4 90 33 189 65 218 69 556 179
1010 330 187 62 615 204 950 315 336 111 617 206 625 211 17 9 60 12 60 3z"/>
<path d="M13775 11066 c-217 -103 -266 -129 -280 -149 -13 -19 -15 -166 -15
-1160 0 -1138 0 -1138 24 -1162 29 -29 32 -28 202 42 65 28 136 56 157 64 79
28 72 -86 71 1198 0 630 -4 1155 -8 1167 -5 16 -47 47 -59 43 -1 0 -42 -20
-92 -43z m43 -1188 c-3 -1071 -3 -1071 -108 -1114 -58 -24 -108 -44 -113 -44
-4 0 -6 478 -5 1063 3 1062 3 1062 98 1114 52 29 103 53 113 53 16 0 17 -56
15 -1072z"/>
<path d="M13051 10730 c-85 -38 -164 -79 -177 -91 -24 -22 -24 -22 -24 -720 0
-452 -4 -700 -10 -704 -5 -3 -106 80 -222 186 -117 106 -301 271 -408 368
-107 96 -249 225 -315 286 -158 147 -158 147 -204 130 -38 -13 -209 -108 -307
-171 -104 -66 -173 -124 -399 -334 -122 -113 -326 -302 -455 -420 -128 -118
-285 -264 -349 -323 -154 -144 -154 -144 -185 -121 -20 16 -498 451 -636 580
-55 51 -434 393 -584 527 -111 99 -146 116 -164 80 -8 -16 -8 -452 -3 -1995 1
-358 1 -358 39 -381 67 -43 330 -188 361 -200 28 -10 34 -9 54 11 22 23 22 23
24 780 1 532 5 758 13 760 6 2 54 -36 106 -85 96 -88 140 -127 530 -473 259
-230 259 -230 299 -230 44 0 76 26 381 311 427 398 516 479 525 473 5 -3 9
-337 9 -760 0 -741 0 -754 20 -774 11 -11 29 -20 39 -20 11 0 73 31 139 69 66
38 147 83 181 101 40 22 68 44 78 64 13 26 16 139 22 884 6 790 7 856 23 866
9 5 20 7 24 3 4 -4 7 -371 8 -817 1 -809 1 -809 23 -831 20 -20 26 -21 60 -11
21 6 112 49 203 94 165 83 165 83 172 133 4 28 6 350 5 717 -1 366 1 669 5
673 4 4 22 -6 41 -21 44 -38 579 -508 677 -595 264 -236 388 -341 409 -346 32
-8 154 32 189 62 27 23 27 23 30 1097 2 590 0 1102 -3 1136 -7 70 -29 102 -67
102 -13 0 -92 -31 -177 -70z m133 -1133 c-1 -633 -5 -1052 -10 -1057 -5 -5
-24 -12 -41 -16 -28 -6 -41 3 -159 107 -71 62 -140 124 -154 137 -24 24 -641
565 -810 711 -47 40 -94 77 -105 81 -17 7 -47 -1 -65 -17 -3 -3 -7 -352 -10
-776 -5 -771 -5 -771 -112 -826 -59 -30 -111 -52 -115 -47 -4 4 -8 374 -8 823
-1 816 -1 816 -25 835 -32 26 -63 19 -149 -32 -119 -70 -106 36 -107 -899 -1
-449 -2 -838 -3 -864 -1 -43 -4 -50 -32 -65 -17 -9 -68 -39 -112 -65 -45 -26
-87 -45 -94 -43 -10 4 -13 157 -13 790 0 785 0 785 -30 801 -17 9 -36 13 -43
9 -14 -9 -273 -243 -402 -364 -50 -47 -158 -148 -240 -225 -274 -257 -294
-275 -311 -275 -16 0 -42 22 -159 130 -27 25 -176 158 -330 295 -154 137 -321
287 -370 334 -114 108 -137 121 -173 100 -27 -15 -27 -15 -30 -794 -1 -429 -4
-786 -7 -793 -5 -13 -115 41 -202 100 -43 29 -43 29 -43 1068 0 838 2 1040 13
1040 7 0 82 -64 168 -142 154 -142 619 -566 734 -669 33 -30 114 -104 180
-164 178 -164 200 -176 255 -138 43 29 639 578 965 888 195 185 227 214 310
276 73 55 337 219 352 219 14 0 62 -41 258 -220 147 -134 430 -390 748 -675
92 -82 176 -154 187 -159 13 -6 27 -4 45 8 25 16 25 16 25 777 0 760 0 760 93
804 50 24 101 43 112 42 20 -2 20 -9 19 -1050z"/>
<path d="M6676 10650 c-195 -42 -383 -163 -492 -317 -109 -152 -163 -329 -171
-561 -9 -255 29 -447 132 -657 147 -300 401 -540 740 -701 362 -171 793 -179
1081 -19 90 50 236 195 292 290 78 134 132 348 132 530 0 233 -72 498 -187
688 -170 283 -430 515 -720 641 -218 96 -311 116 -543 122 -146 3 -190 1 -264
-16z m414 -104 c212 -35 402 -114 590 -244 114 -79 295 -258 366 -362 187
-271 273 -628 218 -898 -23 -115 -70 -248 -112 -316 -119 -197 -345 -316 -630
-332 -264 -15 -580 84 -831 261 -103 72 -269 235 -334 327 -157 223 -237 473
-237 743 0 190 26 309 98 450 101 198 302 338 542 378 59 10 252 6 330 -7z"/>
<path d="M6826 10294 c-171 -41 -330 -180 -401 -349 -57 -138 -72 -357 -35
-515 38 -156 145 -351 263 -477 199 -212 514 -347 771 -330 273 18 477 175
562 433 27 84 29 99 28 249 0 187 -16 262 -88 410 -140 291 -427 511 -758 580
-87 19 -264 18 -342 -1z m418 -138 c270 -91 478 -270 590 -507 51 -107 68
-179 73 -314 6 -141 -15 -246 -69 -348 -132 -250 -468 -323 -793 -173 -216
100 -387 268 -484 478 -61 129 -75 193 -75 348 -1 195 33 292 146 415 100 110
204 147 388 141 100 -3 129 -8 224 -40z"/>
<path d="M3734 9852 c-28 -19 -24 -45 12 -78 19 -19 40 -34 45 -34 5 0 27 -11
49 -25 109 -69 695 -392 902 -497 257 -132 411 -189 781 -292 108 -30 202 -58
207 -61 6 -4 24 -4 39 0 21 4 33 15 40 37 12 34 14 427 3 493 -9 52 -39 67
-192 96 -63 11 -230 46 -370 75 -494 105 -1456 294 -1492 294 -7 0 -18 -4 -24
-8z m670 -227 c94 -19 236 -49 316 -65 80 -17 193 -40 251 -50 58 -11 182 -36
275 -55 93 -20 225 -47 294 -60 189 -38 171 -15 168 -211 -1 -96 -6 -172 -13
-180 -8 -11 -17 -12 -40 -4 -16 6 -94 28 -173 50 -79 23 -214 65 -300 96 -181
63 -280 110 -627 299 -44 24 -100 54 -125 67 -151 82 -236 130 -244 139 -18
17 43 10 218 -26z"/>
<path d="M16020 9825 c-272 -57 -402 -84 -560 -114 -139 -27 -562 -113 -759
-156 -41 -9 -147 -29 -235 -46 -89 -16 -176 -34 -193 -40 -63 -20 -63 -25 -56
-314 3 -143 10 -268 15 -277 5 -10 15 -18 23 -18 31 0 430 115 575 166 159 56
444 190 605 284 50 29 221 126 380 217 506 288 472 265 461 308 -6 22 -11 25
-54 24 -26 0 -117 -16 -202 -34z m-224 -174 c-19 -31 -731 -416 -866 -469
-169 -66 -544 -182 -586 -182 -11 0 -14 35 -14 179 0 100 4 182 9 186 5 3 220
48 478 101 257 52 569 117 693 143 225 49 296 59 286 42z"/>
<path d="M15705 9227 c-93 -51 -198 -109 -232 -130 -167 -102 -504 -235 -887
-351 -39 -12 -40 -14 -63 -92 -136 -461 -284 -820 -486 -1179 -71 -127 -99
-173 -180 -295 -315 -473 -744 -912 -1197 -1222 -209 -143 -476 -298 -514
-298 -8 0 -71 101 -152 243 -188 333 -342 607 -432 767 -41 74 -129 230 -195
345 -66 116 -125 219 -131 230 -43 81 -63 76 -211 -51 -69 -58 -127 -115 -131
-126 -5 -17 135 -461 503 -1592 35 -109 63 -205 61 -213 -2 -8 -31 -27 -66
-40 -78 -32 -79 -31 -116 97 -15 52 -70 235 -121 405 -51 171 -121 402 -155
515 -33 113 -83 275 -110 360 -27 85 -58 187 -69 226 -12 39 -30 79 -41 89
-18 17 -23 17 -50 4 -17 -8 -86 -66 -155 -129 -125 -114 -125 -114 -125 -165
0 -27 6 -106 14 -175 8 -69 22 -195 31 -280 8 -85 26 -245 40 -355 13 -110 34
-290 45 -400 65 -629 94 -878 105 -894 3 -6 23 -11 43 -11 35 0 48 10 182 145
80 80 152 145 162 145 21 0 56 -137 42 -163 -5 -9 -84 -94 -175 -189 -91 -95
-184 -194 -208 -220 -24 -26 -51 -50 -60 -53 -15 -5 -306 -335 -348 -395 -17
-24 -10 -65 12 -74 35 -13 528 46 869 105 238 41 710 178 983 285 388 153 861
398 1143 592 206 142 391 282 549 416 130 109 535 516 656 659 500 589 867
1232 1106 1937 169 497 268 988 285 1416 7 156 6 162 -14 182 -12 12 -25 22
-29 22 -5 -1 -84 -42 -178 -93z m105 -218 c-18 -201 -87 -588 -147 -824 -102
-405 -232 -754 -428 -1150 -358 -724 -808 -1297 -1467 -1870 -191 -165 -616
-460 -859 -596 -260 -144 -609 -306 -860 -399 -328 -121 -746 -229 -1109 -286
-307 -48 -396 -58 -404 -45 -9 14 174 231 198 236 12 2 107 18 211 35 329 54
524 103 880 222 279 93 726 291 928 411 43 26 80 47 82 47 7 0 255 156 368
232 500 335 974 799 1363 1334 174 239 293 437 481 794 49 93 203 453 256 600
130 360 242 842 282 1218 7 59 10 65 44 86 76 48 176 95 184 87 5 -5 3 -64 -3
-132z m-745 -510 c110 -33 206 -66 214 -74 15 -15 7 -51 -14 -59 -8 -3 -82 -8
-165 -12 -101 -5 -149 -11 -147 -18 2 -6 60 -25 130 -43 143 -36 147 -37 147
-62 0 -44 -23 -44 -157 -1 -323 104 -313 100 -313 125 0 39 21 46 168 52 78 3
146 9 153 13 19 13 0 30 -34 31 -18 0 -79 10 -137 23 -105 22 -105 22 -103 51
2 32 20 48 43 39 8 -3 105 -33 215 -65z m255 47 c0 -8 -5 -18 -10 -21 -17 -11
-40 3 -34 20 8 19 44 20 44 1z m-376 -333 c185 -59 234 -91 243 -161 10 -78
-53 -152 -129 -152 -49 0 -129 26 -233 75 -120 56 -145 81 -145 140 0 66 23
113 62 130 40 16 63 13 202 -32z m-208 -252 c152 -64 330 -144 342 -153 16
-13 15 -30 -2 -53 -12 -17 -18 -16 -112 27 -108 50 -237 107 -296 132 -29 11
-38 21 -38 39 0 46 14 47 106 8z m-62 -127 c9 -8 16 -20 16 -24 0 -16 -46 -41
-62 -35 -17 7 -48 -19 -48 -39 0 -22 40 -66 60 -66 10 0 59 16 109 35 134 52
208 44 251 -28 23 -36 26 -100 7 -136 -14 -27 -71 -61 -103 -61 -12 0 -32 9
-45 19 -32 27 -16 57 29 53 22 -2 35 3 50 23 26 33 18 62 -23 82 -30 14 -37
13 -137 -21 -118 -40 -137 -42 -176 -22 -90 47 -112 147 -47 212 29 29 95 33
119 8z m-153 -240 c39 -20 34 -46 -11 -60 -45 -15 -60 -47 -34 -75 32 -36 61
-41 108 -21 149 66 263 44 295 -57 12 -39 12 -48 -5 -89 -24 -59 -67 -86 -119
-76 -20 3 -39 13 -42 21 -7 18 25 53 49 53 59 0 77 53 32 89 -35 28 -77 26
-158 -4 -37 -14 -78 -25 -92 -25 -54 0 -139 62 -149 110 -8 35 20 105 53 130
30 24 35 24 73 4z m-132 -227 c9 -8 96 -62 194 -122 98 -59 181 -114 184 -122
7 -17 -14 -43 -34 -43 -9 0 -49 21 -91 48 -42 26 -84 52 -93 57 -119 71 -219
140 -219 150 0 43 28 58 59 32z m68 -181 c236 -161 243 -166 243 -185 0 -10
-7 -24 -15 -31 -20 -17 -44 -4 -123 62 -65 55 -118 85 -129 74 -5 -4 38 -51
95 -105 95 -90 116 -121 93 -136 -10 -6 -95 24 -209 74 -84 37 -121 41 -82 10
14 -11 73 -52 133 -89 109 -71 126 -92 91 -120 -13 -11 -24 -7 -72 28 -31 23
-118 83 -192 133 -74 50 -139 95 -144 100 -13 12 13 59 33 59 21 0 216 -56
240 -70 24 -12 41 -13 41 -1 0 4 -43 52 -95 107 -52 54 -95 105 -95 112 0 19
29 72 39 72 5 0 72 -42 148 -94z m-3203 -203 c117 -214 138 -252 206 -368 56
-97 177 -312 305 -540 34 -60 114 -200 178 -311 65 -111 117 -206 117 -213 0
-7 -37 -30 -82 -51 -245 -113 -402 -181 -412 -177 -7 3 -18 25 -24 48 -61 214
-183 603 -387 1229 -122 372 -135 414 -135 431 0 19 108 108 131 109 10 0 46
-54 103 -157z m2944 -79 c69 -34 102 -75 102 -124 0 -45 -1 -44 110 -86 88
-33 109 -56 76 -84 -20 -15 -83 -1 -163 37 -81 38 -116 14 -45 -31 20 -13 57
-41 82 -63 42 -38 44 -42 32 -67 -6 -14 -18 -26 -26 -26 -8 0 -77 52 -153 117
-208 175 -233 197 -233 206 0 16 84 119 109 132 36 20 50 19 109 -11z m-3474
-163 c7 -11 115 -355 156 -496 17 -60 49 -166 70 -235 21 -69 62 -204 90 -300
29 -96 81 -266 116 -378 35 -111 64 -206 64 -210 -1 -24 -435 -438 -445 -422
-6 9 -31 226 -75 655 -11 105 -27 246 -35 315 -75 633 -106 940 -96 956 8 15
134 124 143 124 4 0 9 -4 12 -9z m3262 -43 c4 -15 -4 -30 -30 -57 -32 -33 -49
-81 -28 -81 5 0 26 -18 48 -39 39 -40 39 -40 73 -5 28 28 71 46 71 30 0 -2 3
-11 6 -19 3 -8 -8 -30 -26 -51 -37 -41 -37 -42 41 -107 48 -40 48 -40 94 10
40 42 50 49 66 40 11 -5 19 -16 19 -24 0 -23 -111 -155 -129 -155 -10 0 -30
14 -47 31 -16 17 -56 54 -89 81 -33 28 -89 78 -125 113 -36 34 -75 67 -87 74
-13 6 -23 17 -23 24 0 13 103 145 123 159 15 10 36 -2 43 -24z m-143 -224 c70
-35 117 -102 117 -164 0 -17 -14 -47 -35 -75 -36 -46 -36 -46 30 -117 67 -73
73 -86 53 -106 -26 -26 -22 -29 -235 189 -73 75 -133 143 -133 151 0 36 113
138 152 138 10 0 33 -7 51 -16z m-287 -307 c27 -29 83 -93 124 -142 41 -49 92
-108 113 -130 43 -49 44 -55 17 -80 -20 -18 -21 -18 -64 24 -24 23 -56 60 -72
82 -16 21 -33 38 -39 38 -5 0 -25 -13 -44 -29 -33 -28 -33 -28 -5 -67 16 -21
48 -61 71 -89 43 -52 48 -76 16 -88 -21 -9 -28 -2 -177 174 -72 85 -139 163
-148 172 -25 25 -22 46 8 60 24 11 29 9 58 -22 17 -20 45 -52 61 -74 31 -38
31 -38 67 -14 42 26 46 39 19 70 -10 13 -37 45 -60 71 -23 27 -41 51 -41 54 0
9 32 43 40 43 4 0 29 -24 56 -53z m-226 -152 c11 -13 8 -21 -18 -48 -18 -18
-32 -36 -32 -40 0 -4 28 -44 63 -90 35 -45 94 -122 131 -171 54 -70 67 -93 59
-105 -6 -9 -21 -16 -34 -16 -19 0 -46 29 -129 136 -176 228 -152 206 -193 175
-36 -28 -67 -27 -67 3 0 28 159 170 191 171 9 0 22 -7 29 -15z m-225 -205 c9
-17 49 -77 89 -134 41 -57 96 -136 122 -176 48 -72 48 -72 24 -92 -23 -19 -24
-19 -46 4 -24 26 -196 278 -238 349 -24 43 -25 48 -11 63 24 24 43 20 60 -14z
m-34 -190 c90 -199 129 -292 129 -312 0 -10 -11 -24 -25 -30 -31 -14 -42 -5
-137 115 -66 81 -88 101 -88 77 0 -5 22 -54 49 -107 71 -140 74 -148 51 -168
-10 -9 -27 -15 -37 -13 -19 3 -110 97 -257 266 -74 85 -86 105 -76 117 7 8 20
15 30 15 17 0 95 -83 169 -177 30 -40 61 -56 61 -33 0 6 -11 27 -23 48 -35 55
-97 196 -97 220 0 13 9 23 22 28 18 5 33 -6 90 -67 38 -41 80 -91 94 -111 23
-35 54 -51 54 -28 0 6 -31 70 -70 142 -38 72 -70 135 -70 139 0 4 10 15 22 23
31 22 36 15 109 -144z m-515 -196 c50 -24 89 -107 80 -173 -7 -56 -5 -59 92
-140 34 -29 62 -59 62 -67 0 -13 -29 -34 -48 -34 -5 0 -45 31 -88 70 -43 38
-85 70 -92 70 -28 0 -21 -31 23 -111 46 -84 46 -84 25 -101 -28 -22 -33 -22
-52 0 -22 26 -218 398 -218 415 0 20 19 34 86 62 70 29 86 30 130 9z m-258
-128 c-2 -13 -23 -30 -58 -49 -30 -16 -55 -31 -55 -35 0 -4 15 -36 33 -70 31
-59 35 -63 50 -49 9 9 29 20 44 26 21 8 29 6 44 -10 16 -18 16 -20 0 -38 -10
-11 -31 -25 -47 -31 -36 -15 -36 -27 1 -90 17 -28 30 -55 30 -60 0 -20 20 -18
78 7 66 28 95 26 90 -8 -2 -15 -27 -34 -86 -64 -46 -24 -90 -41 -98 -38 -7 3
-25 29 -38 58 -14 29 -62 126 -106 216 -44 90 -79 170 -78 177 2 8 41 33 88
57 88 46 115 46 108 1z m-232 -84 c5 -4 15 -29 22 -57 60 -256 92 -401 92
-421 0 -17 -8 -28 -26 -36 -24 -11 -29 -10 -53 20 -15 17 -47 70 -71 117 -77
150 -90 135 -39 -46 16 -60 29 -120 27 -132 -4 -29 -48 -35 -70 -10 -39 45
-249 388 -246 402 2 9 14 17 28 19 21 2 32 -10 77 -81 29 -46 61 -104 72 -129
20 -46 36 -65 44 -51 3 5 -10 69 -29 143 -18 74 -34 142 -34 151 0 22 24 41
43 33 17 -6 97 -125 142 -211 16 -29 34 -53 42 -53 17 0 16 9 -2 53 -8 19 -26
79 -41 134 -15 54 -29 105 -31 114 -3 9 3 23 12 33 18 18 25 19 41 8z m-403
-212 c43 -34 137 -294 137 -380 0 -70 -79 -131 -149 -115 -62 13 -114 104
-156 273 -29 118 -30 133 -10 173 33 63 127 89 178 49z m-259 -112 c36 -37 63
-127 52 -172 -10 -39 -64 -96 -92 -96 -14 0 -27 -6 -30 -13 -3 -8 6 -51 19
-98 14 -46 23 -89 20 -96 -6 -16 -43 -27 -54 -16 -4 4 -24 67 -44 138 -20 72
-49 174 -65 229 -16 54 -26 104 -23 112 6 17 86 42 142 43 36 1 48 -4 75 -31z"/>
<path d="M14783 8180 c-28 -11 -46 -45 -38 -70 13 -40 238 -140 316 -140 14 0
36 11 49 25 20 21 22 28 12 49 -15 34 -42 49 -162 94 -129 48 -149 52 -177 42z"/>
<path d="M14370 7165 c0 -8 7 -15 16 -15 14 0 14 3 4 15 -7 8 -14 15 -16 15
-2 0 -4 -7 -4 -15z"/>
<path d="M14095 6825 c-14 -13 -25 -28 -25 -33 0 -5 27 -30 60 -55 59 -46 59
-46 85 -13 14 18 25 37 25 42 0 19 -76 84 -98 84 -13 0 -34 -11 -47 -25z"/>
<path d="M13762 6398 c-18 -11 -32 -25 -32 -32 0 -6 25 -36 56 -66 55 -55 55
-55 80 -27 13 15 24 36 24 46 0 24 -31 62 -67 83 -27 16 -30 16 -61 -4z"/>
<path d="M12462 5358 c-44 -12 -48 -28 -17 -74 15 -22 31 -49 36 -61 11 -29
22 -29 59 -1 35 26 39 59 11 104 -22 36 -43 44 -89 32z"/>
<path d="M11554 4935 c-28 -28 -28 -28 13 -165 40 -136 78 -200 118 -200 52 0
57 46 20 173 -33 113 -69 193 -93 206 -28 15 -29 15 -58 -14z"/>
<path d="M11271 4837 c-15 -19 31 -151 54 -155 9 -2 28 7 42 20 20 19 24 30
20 61 -8 58 -31 87 -71 87 -18 0 -39 -6 -45 -13z"/>
<path d="M4175 9270 c-18 -20 -18 -28 -1 -239 31 -397 103 -775 211 -1111 24
-74 55 -175 70 -225 32 -107 106 -291 203 -505 437 -965 1149 -1817 2030
-2427 839 -581 1786 -931 2804 -1038 234 -24 248 -22 248 34 0 34 -329 406
-378 426 -22 10 -132 115 -301 288 -491 500 -779 802 -770 805 8 3 71 -29 166
-85 56 -33 83 -28 105 19 26 54 428 1269 567 1711 43 135 42 152 -16 209 -80
77 -194 168 -220 174 -33 9 -58 -16 -99 -97 -18 -37 -59 -111 -90 -165 -32
-55 -143 -252 -247 -439 -105 -187 -243 -434 -307 -550 -122 -219 -205 -361
-222 -382 -30 -37 -473 250 -783 505 -495 409 -940 975 -1240 1581 -121 244
-250 576 -326 841 -39 133 -47 146 -101 155 -24 4 -99 24 -168 45 -207 63
-372 133 -793 339 -170 83 -312 151 -316 151 -4 0 -16 -9 -26 -20z m221 -195
c50 -25 96 -51 101 -58 5 -6 17 -75 27 -152 56 -449 163 -861 341 -1310 118
-299 256 -565 462 -895 404 -643 1015 -1270 1638 -1678 291 -191 717 -419 988
-528 406 -164 882 -299 1242 -353 39 -6 85 -13 102 -16 26 -5 50 -27 123 -112
49 -59 90 -113 90 -120 0 -7 -11 -13 -25 -13 -63 0 -722 111 -745 125 -3 2
-68 20 -145 40 -815 214 -1600 624 -2280 1191 -163 136 -561 532 -686 684
-347 420 -601 812 -814 1255 -259 536 -411 1035 -499 1630 -34 231 -43 355
-26 355 8 0 55 -20 106 -45z m941 -667 c8 -12 20 -46 38 -115 22 -83 -112
-168 -198 -124 -33 17 -39 17 -52 4 -8 -8 -15 -19 -15 -24 0 -17 -104 -59
-147 -59 -35 0 -46 5 -70 35 -28 33 -63 122 -63 159 0 21 18 28 229 80 228 58
263 63 278 44z m101 -350 c7 -7 12 -22 12 -34 0 -24 -12 -33 -195 -147 -66
-41 -141 -88 -166 -106 -55 -37 -85 -40 -94 -9 -6 17 1 28 31 53 37 31 37 32
24 66 -21 52 -29 59 -76 59 -38 0 -46 4 -56 25 -6 14 -8 28 -5 32 8 7 422 70
478 72 19 0 40 -4 47 -11z m84 -223 c7 -16 8 -29 2 -34 -13 -12 -353 -161
-368 -161 -33 0 -34 -23 -4 -78 32 -55 32 -55 9 -73 -12 -10 -27 -16 -34 -13
-7 2 -30 43 -51 90 -34 73 -37 87 -25 99 11 10 344 164 409 188 32 12 51 6 62
-18z m148 -319 c26 -33 6 -59 -117 -156 -67 -52 -145 -115 -175 -139 -74 -61
-97 -70 -114 -46 -22 29 -19 34 31 70 20 14 20 14 -5 62 -25 47 -26 48 -69 45
-47 -3 -71 10 -71 39 0 12 10 21 28 25 15 4 119 31 232 60 228 58 242 60 260
40z m115 -217 c20 -38 17 -43 -94 -159 -73 -77 -95 -110 -73 -110 4 0 30 16
57 36 28 19 78 51 113 71 51 28 65 33 77 23 34 -28 16 -46 -147 -147 -201
-123 -254 -153 -267 -153 -7 0 -16 11 -23 25 -10 22 -4 32 55 112 36 48 84
106 106 128 36 34 52 65 35 65 -3 0 -62 -34 -130 -75 -68 -41 -133 -75 -144
-75 -19 0 -36 32 -25 49 3 5 54 35 113 67 59 32 154 84 212 116 57 32 108 58
112 58 4 0 15 -14 23 -31z m3194 -199 c34 -28 61 -59 61 -69 0 -10 -45 -155
-100 -322 -55 -167 -123 -376 -150 -464 -73 -235 -300 -909 -310 -919 -11 -11
-459 212 -467 231 -5 13 35 89 197 368 48 83 134 236 192 340 58 105 159 287
225 405 66 118 152 275 192 348 40 72 79 132 86 132 8 0 41 -23 74 -50z
m-3023 -102 c58 -40 88 -114 64 -159 -16 -29 -68 -53 -86 -38 -18 15 -18 48 1
55 21 9 19 50 -5 74 -17 17 -24 18 -52 8 -69 -24 -262 -164 -273 -198 -4 -13
0 -31 10 -46 14 -21 22 -24 62 -22 35 2 48 -1 57 -15 17 -28 -24 -57 -79 -57
-76 0 -139 82 -121 155 10 38 81 111 164 167 150 101 200 116 258 76z m180
-240 c66 -69 88 -106 74 -123 -21 -26 -47 -17 -88 30 -22 25 -42 45 -45 45 -3
0 -29 -22 -58 -49 -54 -50 -54 -50 -21 -83 39 -42 41 -65 5 -74 -23 -6 -32 -2
-56 29 -29 35 -29 35 -93 -11 -35 -25 -64 -52 -64 -60 0 -8 16 -34 35 -58 19
-23 35 -45 35 -47 0 -9 -31 -37 -40 -37 -9 0 -130 148 -130 160 0 4 39 39 88
78 48 38 134 108 192 156 58 47 110 86 115 86 6 0 29 -19 51 -42z m266 -311
c9 -18 5 -25 -28 -56 -22 -19 -93 -85 -159 -146 -174 -162 -184 -170 -204
-158 -45 28 -28 49 254 304 104 94 114 98 137 56z m84 -92 c16 -24 15 -28 -10
-84 -14 -32 -26 -61 -26 -64 0 -3 -16 -40 -37 -82 -54 -114 -32 -112 71 6 67
76 94 99 110 97 56 -8 17 -58 -237 -306 -76 -74 -88 -82 -106 -72 -12 6 -21
20 -21 31 0 12 32 86 70 165 99 203 96 208 -39 63 -111 -119 -135 -137 -156
-119 -8 7 -15 19 -15 28 0 22 340 362 362 362 10 0 25 -11 34 -25z m392 -362
c74 -73 83 -106 48 -178 -34 -68 -177 -230 -226 -255 -59 -30 -90 -26 -161 23
-34 23 -66 49 -72 58 -12 20 -14 18 150 208 67 77 132 154 144 171 13 16 31
30 41 30 9 0 44 -26 76 -57z m246 -209 c76 -62 86 -79 63 -102 -19 -18 -41
-10 -96 38 -18 17 -35 30 -36 30 -5 0 -85 -111 -85 -118 0 -4 17 -21 37 -39
32 -27 36 -34 27 -50 -17 -27 -38 -27 -72 2 -16 14 -34 25 -38 24 -10 0 -94
-113 -94 -125 0 -5 23 -29 51 -54 47 -42 51 -48 40 -68 -6 -12 -19 -22 -27
-22 -19 0 -164 117 -164 132 0 22 297 408 314 408 6 0 42 -25 80 -56z m188
-144 c55 -16 88 -60 88 -121 0 -44 -3 -51 -26 -61 -23 -11 -28 -10 -41 7 -9
13 -12 31 -8 52 5 30 3 34 -29 49 -84 41 -105 -33 -55 -195 23 -75 18 -119
-18 -162 -26 -31 -81 -59 -115 -59 -28 0 -94 37 -112 62 -20 29 -20 87 0 116
18 26 37 28 57 7 13 -12 13 -20 4 -46 -11 -28 -10 -33 16 -55 37 -31 50 -30
81 6 27 33 27 46 0 147 -31 114 -10 201 60 244 36 22 47 23 98 9z m231 -151
c8 -13 -8 -47 -78 -160 -119 -196 -176 -280 -192 -286 -17 -7 -43 15 -43 35 0
9 17 43 39 76 83 131 171 275 171 281 0 4 12 22 27 41 28 37 58 42 76 13z
m188 -103 c30 -20 59 -66 59 -92 0 -44 -21 -84 -45 -84 -33 0 -49 24 -42 65 5
28 1 40 -15 55 -39 36 -65 23 -105 -50 -11 -19 -36 -65 -56 -101 -21 -37 -44
-91 -53 -120 -16 -52 -16 -54 6 -71 34 -28 62 -22 98 22 39 47 40 58 7 70 -29
11 -32 26 -9 52 16 17 19 17 65 -8 26 -15 50 -33 54 -42 7 -19 -46 -102 -96
-146 -46 -42 -93 -47 -144 -16 -34 21 -65 73 -65 109 0 57 111 275 173 339 50
52 111 58 168 18z m184 -110 c17 -12 18 -25 12 -175 -4 -124 -3 -161 7 -161 6
0 17 19 23 43 7 23 28 82 49 130 34 81 38 88 63 85 14 -2 27 -10 29 -19 4 -19
-199 -451 -214 -456 -6 -2 -22 5 -34 15 -24 19 -24 19 -10 153 7 74 14 147 14
163 2 52 -20 38 -44 -26 -12 -35 -40 -98 -61 -140 -40 -80 -62 -96 -89 -63
-11 13 5 52 98 240 63 127 117 225 125 225 7 0 22 -6 32 -14z m119 -562 c20
-8 21 -38 2 -53 -19 -16 -46 -3 -46 23 0 34 12 42 44 30z"/>
<path d="M5182 8325 c-30 -7 -56 -16 -59 -19 -6 -6 17 -44 42 -70 19 -19 73
-21 110 -4 30 14 42 50 26 84 -12 28 -35 29 -119 9z"/>
<path d="M4966 8265 c-67 -19 -73 -27 -53 -70 18 -39 40 -44 110 -24 47 13 66
46 49 84 -13 28 -32 30 -106 10z"/>
<path d="M5178 7976 c-37 -6 -70 -14 -74 -18 -10 -11 28 -78 44 -78 7 0 15 7
18 15 3 8 35 28 70 45 102 48 82 60 -58 36z"/>
<path d="M5570 7460 c0 -5 5 -10 10 -10 6 0 10 5 10 10 0 6 -4 10 -10 10 -5 0
-10 -4 -10 -10z"/>
<path d="M5435 7419 c-33 -10 -68 -19 -77 -19 -28 0 -31 -18 -8 -55 24 -39 32
-42 51 -19 7 9 39 34 71 55 88 60 75 74 -37 38z"/>
<path d="M6704 5838 c-53 -62 -108 -128 -122 -147 -26 -33 -26 -33 1 -57 53
-45 89 -28 190 94 65 78 97 129 97 155 0 20 -39 67 -56 67 -7 0 -57 -51 -110
-112z"/>
<path d="M9281 6921 c-11 -11 -29 -53 -41 -93 -12 -40 -48 -156 -80 -258 -91
-286 -163 -519 -220 -710 -28 -96 -67 -224 -86 -284 -61 -189 -134 -469 -129
-487 5 -16 300 -304 483 -471 45 -42 94 -78 110 -81 32 -6 57 5 67 30 3 10 26
203 50 428 43 405 72 650 100 835 8 52 21 163 29 245 9 83 24 229 36 325 11
96 20 198 20 227 0 51 0 51 -112 154 -114 103 -184 159 -200 159 -4 0 -17 -9
-27 -19z m148 -218 c36 -32 70 -62 74 -68 4 -5 6 -32 3 -60 -3 -27 -17 -162
-31 -300 -26 -262 -60 -542 -75 -635 -11 -65 -86 -718 -96 -838 -4 -45 -11
-85 -16 -88 -10 -6 -39 19 -275 244 -105 99 -163 161 -163 174 0 17 96 354
180 633 15 50 46 153 69 230 23 77 62 201 86 275 24 74 69 215 100 313 31 97
61 177 67 177 6 0 41 -26 77 -57z"/>
<path d="M9748 6493 c-11 -13 -17 -51 -22 -123 -17 -270 -64 -870 -111 -1410
-25 -287 -45 -578 -45 -646 0 -64 0 -64 222 -294 168 -174 228 -230 246 -230
36 0 435 416 448 467 10 38 -16 472 -55 928 -11 127 -30 361 -41 520 -11 160
-27 359 -35 444 -8 85 -15 189 -15 233 0 65 -3 81 -20 98 -11 11 -28 20 -37
20 -16 0 -68 -51 -175 -172 -28 -32 -59 -58 -68 -58 -9 0 -47 33 -85 73 -38
39 -88 93 -113 120 -48 50 -70 57 -94 30z m166 -272 c32 -33 76 -67 97 -76 39
-18 39 -18 80 11 23 15 57 47 76 71 38 46 58 54 67 26 3 -10 10 -90 16 -178
13 -196 35 -468 55 -675 22 -235 75 -999 75 -1093 0 -23 -31 -60 -161 -195
-88 -92 -169 -168 -178 -170 -11 -2 -33 14 -56 40 -21 24 -99 106 -173 183
-134 140 -134 140 -127 255 10 179 33 457 54 671 11 107 25 255 31 329 13 164
60 828 60 847 0 26 27 12 84 -46z"/>
</g>
</svg>
